<?xml version="1.0" encoding="UTF-8"?>
<svg id="Calque_1" xmlns="http://www.w3.org/2000/svg" version="1.1" viewBox="0 0 695.5 406.2">
  <!-- Generator: Adobe Illustrator 29.5.1, SVG Export Plug-In . SVG Version: 2.1.0 Build 141)  -->
  <defs>
    <style>
      .st0 {
        fill: #fff;
      }
    </style>
  </defs>
  <g>
    <path class="st0" d="M455,198.8c-19.2,25.8-37.4,43.2-37.4,43.2-32.3,32.3-84.6,32.3-116.9,0l-.2.2c-14.8-14.9-24-35.5-24-58.2,0-45.7,37-82.7,82.7-82.7s58.7,17.5,72.7,43.3l28.6-28.1c-21.8-32.7-59-54.2-101.2-54.2-67.2,0-121.7,54.5-121.7,121.7s12.3,61,32.5,82.7h-24.7c-9.1,0-16.7-6.4-18.6-14.9V0l-39,14.6v99.4c-18.8-15.8-43.1-25.2-69.6-25.2-59.9,0-108.5,48.6-108.5,108.5s48.6,108.5,108.5,108.5,50.8-10.1,69.5-25.4c0,0-.6,24.9,39,24.9h132.6c31.1,0,62.3-11.9,86-35.6,13-13,23.1-27,30.4-44.3,12.4,46.3,52.5,80.4,102.7,80.4s108.5-48.6,108.5-108.5-6.3-41.7-17.2-58.6l-35.2,17.5c8.5,11.5,13.5,25.8,13.5,41.1,0,38.4-31.1,69.6-69.6,69.6s-69.6-31.1-69.6-69.6,31.1-69.6,69.6-69.6,14,.8,21.3,3.4c0,0,6.8-8.4,17.7-13.7,10.5-5.5,24-5.2,27-4.7-16.7-14-44.3-23.9-66-23.9-43.9,0-81.7,26-98.8,63.5,0,0-17.3,35.9-24.5,46.6ZM118,266.8c-38.4,0-69.6-31.1-69.6-69.6s31.1-69.6,69.6-69.6,69.6,31.1,69.6,69.6-31.1,69.6-69.6,69.6Z"/>
    <g>
      <path class="st0" d="M639.8,164.5s18.1,28.9.3,64.6l37.3,11.7s19.2-35.3,2.6-82.1l-8.8-10.3-14.5-3.8-16.9,19.8Z"/>
      <path class="st0" d="M658.6,152.1c-10.6,2.5-19.2,13-19.2,13s0,0,0,0l-50.2,65.7h0c-.5.7-1.3,1.2-2.2,1.2s-1.7-.5-2.2-1.2h0l-48.3-60.4h0c-.3-.6-.6-1.2-.6-1.9,0-1.2.6-2.2,1.4-2.7h0c23.2-16,37.7,1.7,37.7,1.7l11.8,13.4c.1.1.3.1.4,0l25.2-32.3c15.9-21.7,33.9-20.1,33.9-20.1,16.4.3,25.2,10.1,29.4,17.6,3.2,6,5.1,14,6.1,18.5,0,0-4.8-15.3-23.2-12.4Z"/>
    </g>
  </g>
  <g>
    <path class="st0" d="M90.7,336.4h5v52.5h-5v-7.4c-3.5,5.5-8.5,8.3-15.2,8.3s-9.9-1.9-13.7-5.7c-3.8-3.8-5.7-8.5-5.7-14s1.9-10.2,5.7-14c3.8-3.8,8.3-5.7,13.7-5.7s11.7,2.8,15.2,8.3v-22.4ZM65.4,380.8c2.9,2.9,6.4,4.3,10.5,4.3s7.7-1.4,10.5-4.3c2.9-2.9,4.3-6.4,4.3-10.5s-1.4-7.7-4.3-10.5c-2.9-2.9-6.4-4.3-10.5-4.3s-7.7,1.4-10.5,4.3c-2.9,2.9-4.3,6.4-4.3,10.5s1.4,7.7,4.3,10.5Z"/>
    <path class="st0" d="M138.4,351.4h5v37.5h-5v-7.4c-3.5,5.5-8.5,8.3-15.2,8.3s-9.9-1.9-13.7-5.7c-3.8-3.8-5.7-8.5-5.7-14s1.9-10.2,5.7-14c3.8-3.8,8.3-5.7,13.7-5.7s11.7,2.8,15.2,8.3v-7.4ZM113.1,380.8c2.9,2.9,6.4,4.3,10.5,4.3s7.7-1.4,10.5-4.3c2.9-2.9,4.3-6.4,4.3-10.5s-1.4-7.7-4.3-10.5c-2.9-2.9-6.4-4.3-10.5-4.3s-7.7,1.4-10.5,4.3c-2.9,2.9-4.3,6.4-4.3,10.5s1.4,7.7,4.3,10.5Z"/>
    <path class="st0" d="M173.8,356.3h-10.8v22.7c0,2.1.4,3.5,1.2,4.4.8.9,2,1.3,3.6,1.4,1.6,0,3.6,0,6-.1v4.4c-5.3.8-9.2.4-11.8-1.1s-3.9-4.5-3.9-8.9v-22.7h-7.9v-4.8h7.9v-9l5-1.5v10.5h10.8v4.8Z"/>
    <path class="st0" d="M212.1,351.4h5v37.5h-5v-7.4c-3.5,5.5-8.5,8.3-15.2,8.3s-9.9-1.9-13.7-5.7c-3.8-3.8-5.7-8.5-5.7-14s1.9-10.2,5.7-14c3.8-3.8,8.3-5.7,13.7-5.7s11.7,2.8,15.2,8.3v-7.4ZM186.8,380.8c2.9,2.9,6.4,4.3,10.5,4.3s7.7-1.4,10.5-4.3c2.9-2.9,4.3-6.4,4.3-10.5s-1.4-7.7-4.3-10.5c-2.9-2.9-6.4-4.3-10.5-4.3s-7.7,1.4-10.5,4.3c-2.9,2.9-4.3,6.4-4.3,10.5s1.4,7.7,4.3,10.5Z"/>
    <path class="st0" d="M263.8,389.9c-5.7,0-10.4-1.9-14.1-5.7-3.8-3.8-5.6-8.4-5.6-14s1.9-10.2,5.6-14,8.5-5.7,14.1-5.7,7,.9,10,2.7c3,1.8,5.1,4.2,6.5,7.2l-4.1,2.3c-1-2.3-2.6-4-4.8-5.4-2.2-1.3-4.7-2-7.5-2-4.2,0-7.7,1.4-10.5,4.3-2.9,2.9-4.3,6.4-4.3,10.5s1.4,7.7,4.3,10.5,6.4,4.3,10.5,4.3,5.3-.7,7.5-2c2.2-1.3,3.9-3.1,5.2-5.4l4.1,2.4c-1.6,3-3.8,5.4-6.8,7.1-3,1.8-6.3,2.6-10,2.6Z"/>
    <path class="st0" d="M318.9,384.2c-3.8,3.8-8.5,5.7-14,5.7s-10.2-1.9-14-5.7c-3.8-3.8-5.7-8.4-5.7-14s1.9-10.2,5.7-14c3.8-3.8,8.5-5.7,14-5.7s10.2,1.9,14,5.7c3.8,3.8,5.7,8.4,5.7,14s-1.9,10.2-5.7,14ZM294.4,380.8c2.9,2.9,6.4,4.3,10.5,4.3s7.7-1.4,10.5-4.3c2.9-2.9,4.3-6.4,4.3-10.5s-1.4-7.7-4.3-10.5c-2.9-2.9-6.4-4.3-10.5-4.3s-7.7,1.4-10.5,4.3c-2.9,2.9-4.3,6.4-4.3,10.5s1.4,7.7,4.3,10.5Z"/>
    <path class="st0" d="M372.9,350.5c4.2,0,7.6,1.4,10.2,4.1,2.6,2.7,3.9,6.4,3.9,11v23.4h-5v-23.4c0-3.3-.8-5.8-2.5-7.5-1.7-1.8-3.9-2.7-6.6-2.7s-5.6,1-7.5,3.1c-1.9,2.1-2.9,5.3-2.9,9.7v20.8h-5v-23.4c0-3.3-.8-5.8-2.4-7.6-1.6-1.8-3.7-2.6-6.4-2.6s-5.6,1.1-7.7,3.2-3.2,5.3-3.2,9.7v20.8h-5v-37.5h5v5.5c2.7-4.3,6.5-6.4,11.5-6.4s9.2,2.3,11.4,6.8c2.7-4.6,6.8-6.8,12.2-6.8Z"/>
    <path class="st0" d="M416.6,350.5c5.4,0,9.9,1.9,13.7,5.7,3.8,3.8,5.7,8.5,5.7,14s-1.9,10.2-5.7,14c-3.8,3.8-8.3,5.7-13.7,5.7s-11.7-2.8-15.2-8.3v22.4h-5v-52.5h5v7.4c3.5-5.5,8.5-8.3,15.2-8.3ZM405.7,380.8c2.9,2.9,6.4,4.3,10.5,4.3s7.7-1.4,10.5-4.3,4.3-6.4,4.3-10.5-1.4-7.7-4.3-10.5c-2.9-2.9-6.4-4.3-10.5-4.3s-7.7,1.4-10.5,4.3c-2.9,2.9-4.3,6.4-4.3,10.5s1.4,7.7,4.3,10.5Z"/>
    <path class="st0" d="M444.3,389v-54.8h5v54.8h-5Z"/>
    <path class="st0" d="M486.7,351.4h5.3l-16.1,41c-1.5,3.7-3.5,6.6-6.2,8.7-2.7,2.1-5.7,3.1-9,2.8v-4.7c4.5.5,7.9-2.1,10.3-7.8l1-2.4-16.8-37.7h5.3l14.1,31.2,12.2-31.2Z"/>
    <path class="st0" d="M548.3,384.2c-3.8,3.8-8.5,5.7-14,5.7s-10.2-1.9-14-5.7c-3.8-3.8-5.7-8.4-5.7-14s1.9-10.2,5.7-14c3.8-3.8,8.5-5.7,14-5.7s10.2,1.9,14,5.7,5.7,8.4,5.7,14-1.9,10.2-5.7,14ZM523.7,380.8c2.9,2.9,6.4,4.3,10.5,4.3s7.7-1.4,10.5-4.3,4.3-6.4,4.3-10.5-1.4-7.7-4.3-10.5c-2.9-2.9-6.4-4.3-10.5-4.3s-7.7,1.4-10.5,4.3c-2.9,2.9-4.3,6.4-4.3,10.5s1.4,7.7,4.3,10.5Z"/>
    <path class="st0" d="M579.8,350.5c4.6,0,8.1,1.4,10.8,4.2,2.6,2.8,3.9,6.5,3.9,11.2v23h-5v-23c0-3.4-.9-6-2.7-7.8-1.8-1.9-4.3-2.8-7.5-2.8s-6.5,1.1-8.8,3.4c-2.3,2.3-3.4,5.8-3.4,10.5v19.7h-5v-37.5h5v5.9c2.8-4.5,7-6.8,12.6-6.8Z"/>
    <path class="st0" d="M621.5,350.5c5.6,0,10,2,13.5,5.9,3.4,3.9,5.1,8.6,5.1,13.9s0,1.3-.2,2.3h-33c.5,3.8,2.1,6.8,4.8,9,2.7,2.2,6.1,3.3,10.1,3.3s5.3-.6,7.4-1.8c2.1-1.2,3.6-2.7,4.7-4.6l4.4,2.6c-1.7,2.7-3.9,4.8-6.8,6.3-2.9,1.6-6.1,2.3-9.8,2.3-5.9,0-10.7-1.9-14.4-5.6-3.7-3.7-5.6-8.4-5.6-14.1s1.8-10.3,5.5-14c3.7-3.8,8.4-5.6,14.1-5.6ZM621.5,355.4c-3.9,0-7.2,1.2-9.8,3.5-2.6,2.3-4.2,5.3-4.7,9h28c-.5-4-2-7-4.6-9.2-2.6-2.2-5.5-3.3-8.9-3.3Z"/>
  </g>
</svg>