<svg version="1.1" id="Layer_1" xmlns:x="ns_extend;" xmlns:i="ns_ai;" xmlns:graph="ns_graphs;" xmlns="http://www.w3.org/2000/svg" xmlns:xlink="http://www.w3.org/1999/xlink" x="0px" y="0px" viewBox="0 0 250 65" style="enable-background:new 0 0 250 65;" xml:space="preserve">
 <style type="text/css">
  .st0{fill-rule:evenodd;clip-rule:evenodd;fill:#013A51;}
	.st1{fill-rule:evenodd;clip-rule:evenodd;fill:#11ABEC;}
 </style>
 <metadata>
  <sfw xmlns="ns_sfw;">
   <slices>
   </slices>
   <sliceSourceBounds bottomLeftOrigin="true" height="65" width="250" x="-150" y="0">
   </sliceSourceBounds>
  </sfw>
 </metadata>
 <g id="logo-dougs">
  <path id="Dougs" class="st0" d="M92.1,51.2c-3.8,0-6.7-1.5-8.9-4.5c-2.2-3-3.2-7.1-3.2-12.4c0-5.4,1.1-9.6,3.3-12.6
		c2.2-3,5.2-4.5,9.1-4.5c4,0,7.1,1.6,9.3,4.8h0.3c-0.4-2.4-0.7-4.6-0.7-6.5V5h8.8v45.6h-6.7l-1.7-4.2h-0.4
		C99.2,49.6,96.2,51.2,92.1,51.2z M95.2,44.1c2.2,0,3.9-0.7,4.9-2c1-1.3,1.6-3.6,1.7-6.8v-1c0-3.5-0.5-6-1.6-7.6
		c-1.1-1.5-2.8-2.3-5.2-2.3c-2,0-3.5,0.8-4.6,2.5c-1.1,1.7-1.6,4.1-1.6,7.4s0.5,5.6,1.6,7.3C91.6,43.2,93.2,44.1,95.2,44.1z
		 M126.2,34.2c0,3.2,0.5,5.7,1.6,7.4c1,1.7,2.7,2.5,5.1,2.5c2.3,0,4-0.8,5-2.5c1-1.7,1.5-4.1,1.5-7.4c0-3.2-0.5-5.7-1.6-7.3
		c-1-1.6-2.7-2.4-5.1-2.4c-2.3,0-4,0.8-5.1,2.4C126.7,28.5,126.2,30.9,126.2,34.2z M148.4,34.2c0,5.3-1.4,9.5-4.1,12.5
		c-2.8,3-6.6,4.5-11.5,4.5c-3.1,0-5.8-0.7-8.2-2.1c-2.4-1.4-4.2-3.4-5.4-5.9c-1.3-2.6-1.9-5.6-1.9-9c0-5.4,1.4-9.5,4.1-12.5
		c2.7-3,6.6-4.5,11.6-4.5c3.1,0,5.8,0.7,8.2,2.1c2.4,1.4,4.2,3.3,5.4,5.9C147.8,27.7,148.4,30.7,148.4,34.2z M178.4,50.6l-1.2-4.2
		h-0.5c-0.9,1.5-2.3,2.7-4,3.5c-1.7,0.8-3.7,1.2-5.9,1.2c-3.8,0-6.6-1-8.5-3.1c-1.9-2.1-2.9-5-2.9-8.9V17.8h8.8V37
		c0,2.4,0.4,4.1,1.2,5.3c0.8,1.2,2.1,1.8,3.9,1.8c2.5,0,4.2-0.8,5.3-2.5c1.1-1.7,1.6-4.4,1.6-8.3V17.8h8.8v32.8H178.4z M222.3,17.8
		v4.5l-5,1.3c0.9,1.5,1.4,3.1,1.4,4.9c0,3.5-1.2,6.3-3.6,8.2c-2.4,2-5.7,2.9-10,2.9l-1.6-0.1l-1.3-0.1c-0.9,0.7-1.4,1.5-1.4,2.3
		c0,1.3,1.6,1.9,4.8,1.9h5.5c3.5,0,6.2,0.8,8.1,2.3c1.8,1.5,2.8,3.8,2.8,6.8c0,3.8-1.6,6.8-4.7,8.9c-3.1,2.1-7.6,3.2-13.5,3.2
		c-4.5,0-7.9-0.8-10.3-2.4c-2.4-1.6-3.5-3.8-3.5-6.7c0-2,0.6-3.6,1.8-5c1.2-1.3,3-2.3,5.3-2.8c-0.9-0.4-1.7-1-2.4-1.9
		c-0.7-0.9-1-1.8-1-2.8c0-1.2,0.4-2.3,1.1-3.1c0.7-0.8,1.7-1.6,3.1-2.4c-1.7-0.7-3-1.9-4-3.6c-1-1.6-1.5-3.6-1.5-5.8
		c0-3.6,1.1-6.3,3.4-8.3c2.3-2,5.5-2.9,9.8-2.9c0.9,0,2,0.1,3.2,0.2c1.2,0.2,2,0.3,2.4,0.4H222.3z M197.5,55.2
		c0,1.2,0.6,2.2,1.7,2.9c1.2,0.7,2.8,1.1,4.9,1.1c3.1,0,5.6-0.4,7.4-1.3c1.8-0.9,2.7-2.1,2.7-3.6c0-1.2-0.5-2.1-1.6-2.5
		c-1.1-0.5-2.7-0.7-4.9-0.7h-4.5c-1.6,0-3,0.4-4,1.2C198,52.9,197.5,53.9,197.5,55.2z M200.7,28.6c0,1.8,0.4,3.2,1.2,4.2
		c0.8,1,2,1.6,3.6,1.6c1.6,0,2.9-0.5,3.6-1.6c0.8-1,1.1-2.4,1.1-4.2c0-3.9-1.6-5.9-4.8-5.9C202.3,22.6,200.7,24.6,200.7,28.6z
		 M250,40.9c0,3.4-1.1,5.9-3.4,7.7c-2.3,1.8-5.7,2.6-10.3,2.6c-2.3,0-4.3-0.2-6-0.5c-1.6-0.3-3.2-0.8-4.6-1.4v-7.4
		c1.6,0.8,3.5,1.4,5.5,2c2,0.5,3.8,0.8,5.4,0.8c3.2,0,4.8-0.9,4.8-2.8c0-0.7-0.2-1.3-0.6-1.7c-0.4-0.4-1.1-0.9-2.2-1.5
		c-1-0.6-2.4-1.2-4.1-1.9c-2.5-1.1-4.3-2-5.4-2.9c-1.2-0.9-2-1.9-2.5-3.1c-0.5-1.2-0.8-2.6-0.8-4.3c0-2.9,1.1-5.2,3.3-6.8
		c2.2-1.6,5.4-2.4,9.4-2.4c3.9,0,7.6,0.9,11.3,2.6l-2.6,6.4c-1.6-0.7-3.1-1.3-4.5-1.7c-1.4-0.4-2.8-0.7-4.3-0.7
		c-2.6,0-3.9,0.7-3.9,2.1c0,0.8,0.4,1.5,1.3,2.1c0.8,0.6,2.7,1.5,5.5,2.6c2.5,1,4.3,2,5.5,2.9c1.2,0.9,2,1.9,2.6,3.1
		C249.7,37.8,250,39.2,250,40.9z">
  </path>
  <path id="Logo" class="st1" d="M60,30c0,16.6-13.4,30-30,30C13.4,60,0,46.6,0,30C0,13.4,13.4,0,30,0c9,0,17,3.9,22.5,10.2L30.7,32
		L21,22.4c-0.6-0.6-1.3-0.9-2.1-0.9c-0.8,0-1.5,0.3-2.1,0.9l-4,4c-0.6,0.6-0.9,1.3-0.9,2.1c0,0.8,0.3,1.5,0.9,2.1l15.8,15.8
		c0.6,0.6,1.3,0.9,2.1,0.9c0.8,0,1.5-0.3,2.1-0.9l25.8-25.8C59.5,23.6,60,26.7,60,30z">
  </path>
 </g>
</svg>