<?xml version="1.0" encoding="UTF-8"?>
<svg xmlns="http://www.w3.org/2000/svg" width="100" height="26" viewBox="0 0 100 26" fill="none">
  <g id="logo-dougs">
    <path id="Dougs" fill-rule="evenodd" clip-rule="evenodd" d="M36.8516 20.4687C35.3417 20.4687 34.1556 19.8711 33.2934 18.6758C32.4311 17.4805 32 15.8242 32 13.707C32 11.5586 32.4388 9.88477 33.3164 8.68555C34.1939 7.48632 35.403 6.88672 36.9435 6.88672C38.5607 6.88672 39.7947 7.52734 40.6454 8.80859H40.7604C40.5841 7.83203 40.496 6.96094 40.496 6.19531V2H44.0139V20.2344H41.3237L40.6454 18.5352H40.496C39.6989 19.8242 38.4841 20.4687 36.8516 20.4687ZM38.0817 17.6211C38.9785 17.6211 39.6357 17.3555 40.0534 16.8242C40.4711 16.293 40.6991 15.3906 40.7374 14.1172V13.7305C40.7374 12.3242 40.5247 11.3164 40.0994 10.707C39.674 10.0977 38.9823 9.79297 38.0242 9.79297C37.2425 9.79297 36.6351 10.1309 36.202 10.8066C35.769 11.4824 35.5525 12.4648 35.5525 13.7539C35.5525 15.043 35.7709 16.0098 36.2078 16.6543C36.6446 17.2988 37.2693 17.6211 38.0817 17.6211ZM50.4744 13.6602C50.4744 14.957 50.6833 15.9375 51.101 16.6016C51.5187 17.2656 52.1989 17.5977 53.1416 17.5977C54.0767 17.5977 54.7492 17.2676 55.1593 16.6074C55.5693 15.9473 55.7744 14.9648 55.7744 13.6602C55.7744 12.3633 55.5674 11.3906 55.1535 10.7422C54.7397 10.0937 54.0614 9.76953 53.1186 9.76953C52.1836 9.76953 51.5091 10.0918 51.0952 10.7363C50.6814 11.3809 50.4744 12.3555 50.4744 13.6602ZM59.3613 13.6602C59.3613 15.793 58.8095 17.4609 57.7058 18.6641C56.6021 19.8672 55.0654 20.4687 53.0957 20.4687C51.8617 20.4687 50.7734 20.1934 49.8306 19.6426C48.8879 19.0918 48.1636 18.3008 47.6578 17.2695C47.1519 16.2383 46.899 15.0352 46.899 13.6602C46.899 11.5195 47.447 9.85547 48.543 8.66797C49.639 7.48046 51.1796 6.88672 53.1646 6.88672C54.3986 6.88672 55.4869 7.16015 56.4297 7.70703C57.3724 8.25391 58.0967 9.03906 58.6025 10.0625C59.1084 11.0859 59.3613 12.2851 59.3613 13.6602ZM71.3632 20.2344L70.8918 18.5586H70.7078C70.3323 19.168 69.7996 19.6387 69.1098 19.9707C68.42 20.3027 67.6344 20.4688 66.753 20.4688C65.2431 20.4688 64.105 20.0566 63.3385 19.2324C62.5721 18.4082 62.1889 17.2227 62.1889 15.6758V7.13281H65.6953V14.7852C65.6953 15.7305 65.8601 16.4395 66.1897 16.9121C66.5193 17.3848 67.0443 17.6211 67.7647 17.6211C68.7458 17.6211 69.4547 17.2871 69.8916 16.6191C70.3285 15.9512 70.5469 14.8438 70.5469 13.2969V7.13281H74.0534V20.2344H71.3632ZM88.9179 7.13281V8.94922L86.906 9.47656C87.2739 10.0625 87.4578 10.7187 87.4578 11.4453C87.4578 12.8516 86.9769 13.9473 86.015 14.7324C85.0531 15.5176 83.7176 15.9102 82.0084 15.9102L81.3761 15.875L80.8588 15.8164C80.4985 16.0977 80.3184 16.4102 80.3184 16.7539C80.3184 17.2695 80.9622 17.5273 82.2498 17.5273H84.4342C85.8445 17.5273 86.9194 17.8359 87.659 18.4531C88.3986 19.0703 88.7684 19.9766 88.7684 21.1719C88.7684 22.7031 88.1419 23.8906 86.8887 24.7344C85.6356 25.5781 83.8364 26 81.4911 26C79.6976 26 78.3276 25.6816 77.381 25.0449C76.4345 24.4082 75.9612 23.5156 75.9612 22.3672C75.9612 21.5781 76.2026 20.918 76.6855 20.3867C77.1684 19.8555 77.8773 19.4766 78.8124 19.25C78.4521 19.0937 78.1379 18.8379 77.8696 18.4824C77.6014 18.127 77.4673 17.75 77.4673 17.3516C77.4673 16.8516 77.6091 16.4355 77.8926 16.1035C78.1762 15.7715 78.5863 15.4453 79.1228 15.125C78.4483 14.8281 77.9137 14.3516 77.519 13.6953C77.1243 13.0391 76.9269 12.2656 76.9269 11.375C76.9269 9.94531 77.383 8.83985 78.295 8.05859C79.2071 7.27734 80.51 6.88672 82.2039 6.88672C82.5641 6.88672 82.9914 6.91992 83.4857 6.98633C83.9801 7.05273 84.2962 7.10156 84.4342 7.13281H88.9179ZM78.9963 22.0859C78.9963 22.5781 79.2281 22.9648 79.6918 23.2461C80.1555 23.5273 80.8051 23.668 81.6405 23.668C82.8975 23.668 83.8824 23.4922 84.5951 23.1406C85.3079 22.7891 85.6643 22.3086 85.6643 21.6992C85.6643 21.207 85.4536 20.8672 85.032 20.6797C84.6105 20.4922 83.959 20.3984 83.0776 20.3984H81.2611C80.6173 20.3984 80.0789 20.5527 79.6459 20.8613C79.2128 21.1699 78.9963 21.5781 78.9963 22.0859ZM80.2725 11.4219C80.2725 12.1328 80.4315 12.6953 80.7496 13.1094C81.0676 13.5234 81.5524 13.7305 82.2039 13.7305C82.863 13.7305 83.3459 13.5234 83.6524 13.1094C83.959 12.6953 84.1123 12.1328 84.1123 11.4219C84.1123 9.84374 83.4762 9.05469 82.2039 9.05469C80.9163 9.05469 80.2725 9.84374 80.2725 11.4219ZM100 16.3437C100 17.6875 99.5421 18.7109 98.6262 19.4141C97.7103 20.1172 96.3403 20.4687 94.5161 20.4687C93.5811 20.4687 92.784 20.4043 92.1248 20.2754C91.4657 20.1465 90.8487 19.957 90.2739 19.707V16.7539C90.9254 17.0664 91.6592 17.3281 92.4755 17.5391C93.2917 17.75 94.0103 17.8555 94.6311 17.8555C95.9034 17.8555 96.5395 17.4805 96.5395 16.7305C96.5395 16.4492 96.4552 16.2207 96.2866 16.0449C96.118 15.8691 95.8267 15.6699 95.4129 15.4473C94.999 15.2246 94.4472 14.9648 93.7574 14.668C92.7686 14.2461 92.0424 13.8555 91.5788 13.4961C91.1151 13.1367 90.7778 12.7246 90.5671 12.2598C90.3563 11.7949 90.2509 11.2227 90.2509 10.543C90.2509 9.3789 90.6935 8.47852 91.5788 7.8418C92.464 7.20507 93.719 6.88672 95.3439 6.88672C96.8921 6.88672 98.3981 7.23047 99.862 7.91797L98.8044 10.4961C98.1606 10.2148 97.5589 9.98438 96.9994 9.80469C96.4399 9.625 95.8689 9.53516 95.2864 9.53516C94.2517 9.53516 93.7344 9.82031 93.7344 10.3906C93.7344 10.7109 93.9011 10.9883 94.2345 11.2227C94.5679 11.457 95.2979 11.8047 96.4246 12.2656C97.4286 12.6797 98.1644 13.0664 98.6319 13.4258C99.0994 13.7852 99.4443 14.1992 99.6666 14.668C99.8889 15.1367 100 15.6953 100 16.3437Z" fill="#013A51"></path>
    <path id="Logo" fill-rule="evenodd" clip-rule="evenodd" d="M24 12C24 18.6274 18.6274 24 12 24C5.37258 24 0 18.6274 0 12C0 5.37258 5.37258 0 12 0C15.5833 0 18.7997 1.57056 20.9985 4.06085L12.2624 12.8131L8.40565 8.94918C8.17099 8.71412 7.89238 8.59659 7.56976 8.59659C7.24713 8.59659 6.96852 8.71412 6.73387 8.94918L5.12077 10.5653C4.88614 10.8004 4.7688 11.0795 4.7688 11.4027C4.7688 11.7259 4.88614 12.0051 5.12077 12.2401L11.4266 18.5576C11.6612 18.7927 11.9398 18.9102 12.2624 18.9102C12.585 18.9102 12.8637 18.7927 13.0983 18.5576L23.3986 8.23827C23.7888 9.42146 24 10.6861 24 12Z" fill="#11ABEC"></path>
  </g>
</svg>
