<svg xmlns="http://www.w3.org/2000/svg" xmlns:xlink="http://www.w3.org/1999/xlink" width="200" zoomAndPan="magnify" viewBox="0 0 150 52.499999" height="70" preserveAspectRatio="xMidYMid meet" version="1.0"><defs><g/></defs><g fill="#000000" fill-opacity="1"><g transform="translate(0.146344, 38.059443)"><g><path d="M 20.457031 0.4375 C 32.976562 0.4375 38.78125 -4.710938 38.78125 -15.3125 L 38.78125 -30.535156 L 16.140625 -30.535156 L 16.140625 -24.734375 L 31.886719 -24.734375 L 31.886719 -15.3125 C 31.886719 -10.816406 30.710938 -5.367188 20.457031 -5.367188 C 10.207031 -5.367188 9.03125 -10.773438 9.03125 -15.3125 L 2.136719 -15.3125 C 2.136719 -4.667969 7.894531 0.4375 20.457031 0.4375 Z M 20.457031 0.4375 "/></g></g></g><g fill="#000000" fill-opacity="1"><g transform="translate(41.063258, 38.059443)"><g><path d="M 1.703125 0 L 9.335938 0 L 13.042969 -6.761719 L 32.5 -6.761719 L 36.207031 0 L 43.839844 0 L 27.21875 -30.535156 L 18.320312 -30.535156 Z M 15.703125 -12.082031 L 22.769531 -24.90625 L 29.835938 -12.082031 Z M 15.703125 -12.082031 "/></g></g></g><g fill="#000000" fill-opacity="1"><g transform="translate(86.604035, 38.059443)"><g><path d="M 2.136719 0 L 9.03125 0 L 9.03125 -22.378906 L 22.945312 0 L 28.136719 0 L 42.007812 -22.378906 L 42.007812 0 L 48.898438 0 L 48.898438 -30.535156 L 39.214844 -30.535156 L 25.519531 -7.984375 L 11.820312 -30.535156 L 2.136719 -30.535156 Z M 2.136719 0 "/></g></g></g><g fill="#000000" fill-opacity="1"><g transform="translate(137.641123, 38.059443)"><g><path d="M 2.136719 0 L 9.03125 0 L 9.03125 -30.535156 L 2.136719 -30.535156 Z M 2.136719 0 "/></g></g></g></svg>