<?xml version="1.0" encoding="UTF-8"?>
<svg  xmlns="http://www.w3.org/2000/svg" viewBox="0 0 508 63" fill="none">
  <path d="M32.8008 26.7C22.1008 26.7 14.8008 33.8 14.8008 44.3C14.8008 54.7 22.1008 61.8 33.1008 61.8C39.0008 61.8 43.8008 59.7 46.9008 56C47.5008 55.3 47.7008 54.5 47.7008 53.7C47.7008 51.5 46.3008 50.0999 44.1008 50.0999C43.0008 50.0999 42.1008 50.5 41.2008 51.5C39.5008 53.5 36.7008 54.9 33.1008 54.9C27.7008 54.9 23.8008 51.8 22.9008 46.9H45.3008C48.0008 46.9 49.8008 45.2 49.8008 42.4V42C49.9008 33.7 42.5008 26.7 32.8008 26.7ZM22.9008 40.9C23.9008 36.4 27.9008 33.5999 32.8008 33.5999C37.7008 33.5999 41.4008 36.5 42.4008 40.9H22.9008Z" fill="currentColor"></path>
  <path d="M81.1996 14.6001H61.0996C58.2996 14.6001 56.5996 16.3001 56.5996 19.1001V57.4001C56.5996 60.2001 58.0996 61.9001 60.7996 61.9001C63.3996 61.9001 64.8996 60.2001 64.8996 57.4001V44.6001H81.0996C91.3996 44.6001 96.9996 39.4001 96.9996 29.6001C96.9996 19.9001 91.4996 14.6001 81.1996 14.6001ZM80.2996 37.0001H64.8996V22.3001H80.2996C85.5996 22.3001 88.4996 24.9001 88.4996 29.6001C88.4996 34.5001 85.5996 37.0001 80.2996 37.0001Z" fill="currentColor"></path>
  <path d="M139.099 22.3C141.599 22.3 143.199 20.9 143.199 18.5C143.199 16.1 141.599 14.7 139.099 14.7H108.199C105.399 14.7 103.699 16.4 103.699 19.2V57.4C103.699 60.2 105.399 61.9 108.199 61.9H139.099C141.599 61.9 143.199 60.3999 143.199 58.0999C143.199 55.6999 141.599 54.3 139.099 54.3H112.099V42.0999H133.999C136.599 42.0999 138.099 40.6 138.099 38.3C138.099 36 136.599 34.5 133.999 34.5H112.099V22.3H139.099Z" fill="currentColor"></path>
  <path d="M255.1 14.6001C252.4 14.6001 250.9 16.3001 250.9 19.1001V57.4001C250.9 60.2001 252.4 61.9001 255.1 61.9001C257.7 61.9001 259.2 60.2001 259.2 57.4001V19.1001C259.2 16.3001 257.7 14.6001 255.1 14.6001Z" fill="currentColor"></path>
  <path d="M286.899 34.0999L285.299 33.9999C280.399 33.7999 275.899 33.0999 275.199 30.6999C274.999 29.9999 274.999 29.2999 275.099 28.6999C275.199 27.5999 275.599 26.6999 276.299 25.8999C277.899 23.9999 280.999 22.7999 285.199 22.5999C293.599 22.1999 297.699 25.9999 297.899 26.1999C299.599 27.5999 301.899 27.7999 303.499 26.2999C305.099 24.7999 305.099 22.2999 303.599 20.6999C303.299 20.3999 297.099 14.0999 284.899 14.6999C276.599 15.0999 272.399 18.2999 270.199 20.8999C267.799 23.8999 266.799 27.7999 267.399 31.9999C268.899 41.2999 279.799 41.7999 284.999 41.9999L286.599 42.0999C295.099 42.4999 297.899 43.7999 297.899 47.5999C297.899 49.8999 297.099 50.8999 296.499 51.4999C294.799 53.1999 291.099 54.1999 286.799 54.0999C282.799 53.9999 277.499 52.9999 273.899 50.3999C273.399 49.9999 272.899 49.5999 272.499 49.1999C270.999 47.5999 268.199 47.7999 266.899 49.1999C265.399 50.7999 265.299 53.1999 266.899 54.7999C273.199 61.2999 282.899 62.0999 286.699 62.0999C286.899 62.0999 286.999 62.0999 287.199 62.0999C291.099 62.0999 297.799 61.3999 302.099 57.1999C304.599 54.7999 305.899 51.4999 305.899 47.5999C305.799 34.8999 292.099 34.2999 286.899 34.0999Z" fill="currentColor"></path>
  <path d="M233.4 42.3L234 57.5C234.1 60.3 235.8 61.9 238.5 61.8C241.2 61.7 242.7 60 242.6 57.2L241.6 28.5L233.4 42.3Z" fill="currentColor"></path>
  <path d="M244.9 0C243.5 0 242.2 0.8 241.4 2L238.5 6.8L219.8 38.4L207.8 17.9C206.7 16 204.9 14.3 202.3 14.6C202.2 14.6 202.1 14.6 201.9 14.7C201.7 14.7 201.5 14.8 201.5 14.8C199.9 15.3 198.9 16.7 198.8 18.8L197.2 57.3C197.1 60 198.5 61.8 201.1 61.9C203.6 62 205.2 60.4 205.3 57.7L206.4 31.4L213.9 44.3C215.2 46.6 216.9 48.5 219.8 48.5C222.8 48.5 224.2 46.9 225.8 44.1L248.3 6.1C249.9 3.4 248 0 244.9 0Z" fill="currentColor"></path>
  <path d="M180.1 43.2V43.0999C186.5 41.3999 190 36.6 190 29C190 19.6 184.5 14.7 174.2 14.7H154.4C151.6 14.7 149.9 16.4 149.9 19.2V57.4C149.9 60.2 151.4 61.9 154.1 61.9C156.7 61.9 158.2 60.2 158.2 57.4V44.3H170.4L182.6 60C183.5 61.2 184.7 61.9 186.2 61.9C188.8 61.9 190.4 60.3 190.4 57.8C190.4 56.7 190.1 55.7 189.3 54.7L180.1 43.2ZM173.4 36H158.3V23H173.4C178.7 23 181.5 25.3 181.5 29.5C181.5 33.6 178.7 36 173.4 36Z" fill="currentColor"></path>
  <path d="M361.501 14.6001C358.801 14.6001 357.301 16.3001 357.301 19.1001V57.4001C357.301 60.2001 358.801 61.9001 361.501 61.9001C364.101 61.9001 365.601 60.2001 365.601 57.4001V19.1001C365.601 16.3001 364.101 14.6001 361.501 14.6001Z" fill="currentColor"></path>
  <path d="M346.9 54.3001H320.9V19.1001C320.9 16.3001 319.4 14.6001 316.8 14.6001C314.1 14.6001 312.6 16.3001 312.6 19.1001V57.4001C312.6 60.2001 314.3 61.9001 317.1 61.9001H346.9C349.4 61.9001 351 60.4001 351 58.1001C351 55.7001 349.4 54.3001 346.9 54.3001Z" fill="currentColor"></path>
  <path d="M451.2 43.2V43.0999C457.6 41.3999 461.1 36.6 461.1 29C461.1 19.6 455.6 14.7 445.3 14.7H425.5C422.7 14.7 421 16.4 421 19.2V57.4C421 60.2 422.5 61.9 425.2 61.9C427.8 61.9 429.3 60.2 429.3 57.4V44.3H441.5L453.8 60C454.7 61.2 455.9 61.9 457.4 61.9C460 61.9 461.6 60.3 461.6 57.8C461.6 56.7 461.3 55.7 460.5 54.7L451.2 43.2ZM444.5 36H429.4V23H444.5C449.8 23 452.6 25.3 452.6 29.5C452.6 33.6 449.8 36 444.5 36Z" fill="currentColor"></path>
  <path d="M503.599 54.3H476.599V42.0999H498.499C501.099 42.0999 502.599 40.6 502.599 38.3C502.599 36 501.099 34.5 498.499 34.5H476.599V22.3H503.599C506.099 22.3 507.699 20.9 507.699 18.5C507.699 16.1 506.099 14.7 503.599 14.7H472.699C469.899 14.7 468.199 16.4 468.199 19.2V57.4C468.199 60.2 469.899 61.9 472.699 61.9H503.599C506.099 61.9 507.699 60.3999 507.699 58.0999C507.799 55.6999 506.199 54.3 503.599 54.3Z" fill="currentColor"></path>
  <path d="M407.8 37.9001C407.7 37.9001 407.7 37.8001 407.8 37.8001C411.6 35.9001 413.4 32.2001 413.4 27.5001C413.4 18.7001 408.4 14.6001 397.8 14.6001H377.4C374.6 14.6001 372.9 16.3001 372.9 19.1001V57.4001C372.9 60.2001 374.6 61.9001 377.4 61.9001H399.2C409.8 61.9001 414.8 57.7001 414.8 48.9001C414.8 43.5001 412.5 39.7001 407.8 37.9001ZM381.3 23.0001H397.5C402.4 23.0001 405 24.8001 405 28.5001C405 32.2001 402.5 33.9001 397.5 33.9001H381.3V23.0001ZM398.7 53.6001H381.3V42.3001H398.7C403.6 42.3001 406.2 44.1001 406.2 47.9001C406.2 51.7001 403.7 53.6001 398.7 53.6001Z" fill="currentColor"></path>
  <path d="M4.2 14.6001C1.5 14.6001 0 16.3001 0 19.1001V57.4001C0 60.2001 1.5 61.9001 4.2 61.9001C6.8 61.9001 8.3 60.2001 8.3 57.4001V19.1001C8.4 16.3001 6.8 14.6001 4.2 14.6001Z" fill="currentColor"></path>
</svg>
