<svg fill="none" height="4008.459961" viewBox="-239.19 -239.23 11612.59 4008.46" width="11612.589844" xmlns="http://www.w3.org/2000/svg" xmlns:xlink="http://www.w3.org/1999/xlink"><mask id="a" fill="#fff"><path clip-rule="evenodd" d="m3229.59 343.454c44.57-263.7265-258.4-444.531-471.38-281.3102l-1308.39 1002.7162-589.479-324.392c-213.115-117.279-478.917 12.457-517.013 252.348l-338.64994 2132.544c-51.19476 322.39 329.35294 531.8 576.74694 317.39l1297.865-1124.84 551.75 329.27c178.55 106.56 409.2.36 443.79-204.34zm-1986.84 880.106-179.94 137.9c-165.307 126.69-150.971 379.09 27.58 485.65l573.22 342.08-1239.03 1073.86c-78.716 68.22-199.799 1.59-183.51-100.99l338.65-2132.55c12.121-76.326 96.695-117.605 164.504-80.289z" fill="#fff" fill-rule="evenodd"/></mask><g fill="#05192d"><path d="m2758.21 62.1438 145.31 189.5992zm471.38 281.3102-235.53-39.801zm-1779.77 721.406-115.17 209.28 136.66 75.21 123.81-94.89zm-589.479-324.392-115.167 209.278zm-517.013 252.348-235.918-37.464zm-338.64994 2132.544 235.91794 37.47zm576.74694 317.39-156.448-180.51zm1297.865-1124.84 122.42-205.13-148.33-88.52-130.54 113.13zm551.75 329.27 122.41-205.13zm443.79-204.34 235.54 39.8zm-1812.02-1081.38-145.304-189.6zm179.94-137.9 145.3 189.6 290.34-222.51-320.48-176.37zm-152.36 623.55 122.42-205.13zm573.22 342.08 156.45 180.52 249.63-216.36-283.66-169.28zm-1239.03 1073.86 156.448 180.51h.001zm-183.51-100.99 235.918 37.46zm338.65-2132.55 235.919 37.47zm164.504-80.289 115.168-209.279zm2159.296-697.478c13.22-10.136 23.89-12.57 32.25-12.843 9.77-.319 21.29 2.347 32.3 8.917 11.01 6.572 18.47 15.227 22.5 23.367 3.38 6.835 6.16 16.636 3.49 32.469l471.07 79.603c81.31-481.1828-469.86-803.743-852.22-510.711zm-1308.4 1002.717 1308.4-1002.717-290.61-379.198-1308.39 1002.719zm-30.13-398.876-589.481-324.394-230.335 418.556 589.476 324.394zm-589.481-324.394c-357.56-196.768-803.965 20.3-868.099 424.162l471.836 74.928c12.057-75.92 97.257-118.324 165.928-80.534zm-868.099 424.162-338.65 2132.548 471.836 74.93 338.65-2132.55zm-338.65 2132.548c-86.736 546.19 556.108 893.31 969.114 535.36l-312.897-361.02c-81.782 70.88-200.034-.84-184.381-99.41zm969.114 535.36 1297.866-1124.84-312.9-361.03-1297.863 1124.85zm1815.576-1181.21-551.74-329.27-244.83 410.25 551.74 329.27zm85.85-39.01c-6.49 38.4-50.98 59.82-85.85 39.01l-244.83 410.25c322.24 192.31 739.06 1.34 801.75-369.66zm354.76-2099.387-354.76 2099.387 471.07 79.6 354.76-2099.385zm-1785.95 1247.407 179.94-137.9-290.61-379.2-179.934 137.9zm4.7 90.92c-33.01-19.69-36.54-66.52-4.7-90.92l-290.604-379.2c-298.773 228.97-273.631 686.95 50.474 880.37zm573.22 342.09-573.22-342.09-244.83 410.25 573.22 342.09zm-1205.001 1459.49 1239.031-1073.85-312.89-361.03-1239.038 1073.85zm-575.87708-318.96c-51.83122 326.39 331.55108 530.71 575.87608 318.96l-312.896-361.03c86.894-75.31 228.109-4.24 208.856 116.99zm338.65008-2132.551-338.65011 2132.551 471.83611 74.92 338.651-2132.54zm515.59-252.107c-212.254-116.804-477.43 11.807-515.59 252.107l471.837 74.931c-13.918 87.64-109.947 133.69-186.582 91.52zm498.518 274.338-498.518-274.338-230.335 418.558 498.523 274.34z" mask="url(#a)"/><path d="m4558.76 2771.66c583.72 0 1015.17-482.21 1015.17-1088.49 0-569.62-377.87-955.945-902.37-955.945-580.9 0-1006.71 476.565-1006.71 1082.845 0 566.8 369.41 961.59 893.91 961.59zm53.58-349.67c-344.03 0-552.7-307.37-552.7-668.32 0-363.77 214.31-673.96 561.16-676.78 355.31-2.82 558.34 315.83 555.52 668.32 2.82 363.77-214.31 676.78-563.98 676.78zm1972.29-1099.76c-208.68 0-369.41 121.25-442.73 307.37v-868.536-180.475c-124.08 36.659-253.79 53.579-360.95 104.337v76.138 1917.536h2.82c95.88 42.3 279.17 93.06 482.21 93.06 518.86 0 848.79-332.75 848.79-800.86 0-375.04-211.49-648.57-530.14-648.57zm-267.9 1142.06c-62.03 0-121.25-11.28-174.83-25.38v-366.59l2.82 5.64c0-265.07 157.91-442.72 332.75-442.72 166.37 0 267.89 157.91 267.89 372.22 0 276.35-166.37 456.83-428.63 456.83zm1153.44-1367.66c118.43 0 211.49-87.41 211.49-203.031 0-112.796-93.06-197.393-211.49-197.393-121.26 0-214.32 84.597-214.32 197.393 0 115.621 93.06 203.031 214.32 203.031zm-180.48 327.11v1274.6c0 281.99-47.94 380.69-191.75 420.17-8.46 73.32 22.56 146.63 78.95 217.13 318.65 0 473.75-163.55 473.75-640.12v-1373.29c-124.08 33.83-253.79 50.75-360.95 101.51zm1171.17 1347.92c420.16 0 733.17-341.21 733.17-769.84 0-403.24-273.53-679.59-651.4-679.59-420.16 0-733.17 338.38-733.17 769.83 0 403.25 273.53 679.6 651.4 679.6zm36.66-313.01c-191.76 0-324.29-166.38-321.47-408.89 0-231.23 121.25-411.7 324.29-411.7 191.75 0 329.92 160.73 329.92 406.06-2.82 234.05-129.71 414.53-332.74 414.53zm2523.38-1116.69-273.5 950.31-301.7-944.67c-121.3 28.2-245.4 42.3-346.9 84.6l-276.35 851.61-262.25-950.3c-129.71 16.91-259.43 31.01-391.96 39.47l313.01 924.93c87.41 250.98 149.45 400.43 172.01 442.73 112.8 11.28 222.77 5.64 341.21-11.28 8.43-45.12 50.73-200.21 129.73-434.27l143.8-425.8 143.8 428.62c81.8 236.88 149.5 400.43 177.7 456.83 129.7 0 245.3-11.28 346.8-31.02 5.7-33.84 39.5-172.01 124.1-425.81l313-939.03c-115.6-2.82-234-5.64-352.5-16.92z"/></g></svg>