<svg width="24" height="24" viewBox="0 0 24 24" fill="none" xmlns="http://www.w3.org/2000/svg">
<path d="M9.5 15.5C9.5 14.3 10.5 13.5 12 13.5C13.5 13.5 14.5 14.3 14.5 15.5C14.5 18 14 23 12 23C10 23 9.5 18 9.5 15.5Z" fill="black"/>
<path fill-rule="evenodd" clip-rule="evenodd" d="M3.25 11C3.25044 9.43483 3.67071 7.89844 4.46698 6.55096C5.26325 5.20348 6.40638 4.09425 7.77722 3.3389C9.14805 2.58354 10.6964 2.20971 12.2609 2.25638C13.8253 2.30304 15.3487 2.76849 16.672 3.6042C17.9954 4.43992 19.0704 5.61531 19.7849 7.00785C20.4995 8.40039 20.8274 9.95911 20.7346 11.5215C20.6418 13.0839 20.1315 14.5928 19.2571 15.891C18.3827 17.1891 17.176 18.2289 15.763 18.902C15.6815 19.494 15.5697 20.0815 15.428 20.662C19.403 19.252 22.25 15.459 22.25 11C22.25 5.34 17.66 0.75 12 0.75C6.34 0.75 1.75 5.34 1.75 11C1.75 15.459 4.597 19.253 8.572 20.663L8.542 20.538C8.41442 19.9978 8.31264 19.4519 8.237 18.902C6.74395 18.1908 5.48303 17.071 4.60039 15.6724C3.71775 14.2739 3.24953 12.6538 3.25 11Z" fill="black"/>
<path fill-rule="evenodd" clip-rule="evenodd" d="M6.75 11C6.75005 10.1462 6.95831 9.30535 7.35675 8.55024C7.75519 7.79514 8.33177 7.1486 9.03651 6.66667C9.74126 6.18474 10.5529 5.88195 11.4011 5.78456C12.2493 5.68717 13.1085 5.79811 13.9041 6.10776C14.6998 6.41741 15.4079 6.91644 15.9671 7.56158C16.5263 8.20672 16.9197 8.97851 17.1133 9.81005C17.3069 10.6416 17.2947 11.5078 17.0779 12.3336C16.8611 13.1594 16.4461 13.9198 15.869 14.549C15.955 14.85 16 15.169 16 15.5C16 15.788 15.994 16.109 15.98 16.453C17.1302 15.6133 17.9854 14.4313 18.4232 13.0761C18.861 11.7209 18.8589 10.262 18.4172 8.90802C17.9756 7.55408 17.1171 6.37451 15.9644 5.53807C14.8118 4.70164 13.4241 4.2512 12 4.2512C10.5759 4.2512 9.1882 4.70164 8.03557 5.53807C6.88293 6.37451 6.02438 7.55408 5.58275 8.90802C5.14112 10.262 5.13904 11.7209 5.57681 13.0761C6.01458 14.4313 6.86976 15.6133 8.02 16.453C8.006 16.109 8 15.788 8 15.5C8 15.169 8.045 14.85 8.131 14.549C7.2411 13.5815 6.74807 12.3145 6.75 11Z" fill="black"/>
<path d="M9.75 10.25C9.75 10.8467 9.98705 11.419 10.409 11.841C10.831 12.2629 11.4033 12.5 12 12.5C12.5967 12.5 13.169 12.2629 13.591 11.841C14.0129 11.419 14.25 10.8467 14.25 10.25C14.25 9.65326 14.0129 9.08097 13.591 8.65901C13.169 8.23705 12.5967 8 12 8C11.4033 8 10.831 8.23705 10.409 8.65901C9.98705 9.08097 9.75 9.65326 9.75 10.25Z" fill="black"/>
</svg>
